<svg width="200" height="75" xmlns="http://www.w3.org/2000/svg" xml:space="preserve" version="1.1" clip-rule="evenodd">
 <g>
  <title>Layer 1</title>
  <g id="Camada_x0020_1">
   <metadata id="CorelCorpID_0Corel-Layer"/>
   <path class="fil0" d="m21.1037,8.7789c0,0 18.7584,28.779 18.7584,28.779c0,0 -18.3467,28.9693 -18.3467,28.9693l18.8798,0.1123c0,0 18.8862,-29.0816 18.8862,-29.0816c0,0 -19.186,-29.0788 -19.186,-29.0788c0,0 -18.9917,0.2998 -18.9917,0.2998z" fill="#FC0101" id="svg_1"/>
   <path class="fil1" d="m21.5154,66.5272c0,0 18.3467,-28.9693 18.3467,-28.9693c0,0 -18.7584,-28.779 -18.7584,-28.779c0,0 -10.3868,0.2997 -10.3868,0.2997c0,0 18.5864,28.7791 18.5864,28.7791c0,0 -18.5864,28.4791 -18.5864,28.4791c0,0 10.7985,0.1904 10.7985,0.1904z" fill="#005AA0" id="svg_2"/>
   <path class="fil2" d="m185.4891,27.9648c-5.4223,1.2633 -4.1969,-0.3496 -4.1969,-8.094c0,-1.755 4.4967,-1.755 4.4967,0c0,1.6375 0.2108,6.9514 -0.2998,8.094zm-10.4923,-8.9934c0,11.5726 -1.7161,14.6893 9.593,14.6893c9.0708,0 7.4945,-5.9408 7.4945,-13.7899c0,-6.8899 -4.7105,-6.5952 -10.4924,-6.5952c-3.6322,0 -6.5951,1.5444 -6.5951,5.6958z" fill="black" id="svg_3"/>
   <path class="fil2" d="m85.0625,14.4747l0,14.0897c0,4.9278 5.2965,5.0963 9.2932,5.0963c3.7647,0 7.4946,-1.3172 7.4946,-5.0963l0,-14.0897c0,-1.4359 -2.1833,-0.8993 -5.6959,-0.8993c-0.9532,1.8014 -0.5996,3.6844 -0.5996,6.5952c0,2.4981 0,4.9963 0,7.4944c-1.5949,0.844 -2.6019,0.844 -4.1968,0c0,-4.2248 0.5365,-10.4998 -0.2998,-14.0896c-2.8689,0 -5.9957,-0.5457 -5.9957,0.8993z" fill="black" id="svg_4"/>
   <path class="fil2" d="m82.9641,44.153c0,4.1098 -0.4664,5.8911 3.1751,7.3172c5.0477,1.9769 5.7513,-0.7319 5.8183,2.2758c-3.3623,0 -6.9982,-0.4562 -8.9934,0.5995c0,2.3842 -0.1863,2.7101 0.2998,4.7966c5.9231,0 14.9889,1.6383 14.9889,-4.7966l0,-3.2975c0,-5.8746 -8.9934,-3.5341 -8.9934,-5.3961c0,-1.3523 1.8642,-0.902 3.2976,-0.8994c1.4988,0.0028 2.9979,0.0001 4.4967,0.0001c0.2759,-1.1839 1.06,-5.396 -0.8993,-5.396c-4.9516,0 -13.1903,-1.1988 -13.1903,4.7964z" fill="black" id="svg_5"/>
   <path class="fil2" d="m139.6227,18.9714c0,3.1078 -0.3884,5.2058 2.8092,6.4839c0.8337,0.3333 5.1356,0.9873 6.1842,1.0106l0,1.4989l-7.7943,0c-1.6748,0 -1.1991,2.3907 -1.1991,4.7966c1.9816,1.0485 5.3636,0.5995 8.6936,0.5995c7.2512,0 6.5952,-3.9791 6.5952,-8.0941c0,-4.2209 -5.0545,-4.7964 -8.6936,-4.7964c-0.4158,-1.7843 -0.4304,-1.5018 3.2975,-1.499c2.6634,0.0021 5.7798,1.3982 4.1969,-5.396c-6.6104,0 -14.0896,-1.6688 -14.0896,5.396z" fill="black" id="svg_6"/>
   <path class="fil2" d="m67.0757,18.0721c0,5.2409 -0.7188,7.3284 6.3028,8.0867c0.7887,0.0852 2.6906,0.1896 2.6906,0.9067c0,1.2892 -1.3628,0.9099 -2.6972,0.9002c-7.6235,-0.0551 -6.2962,-1.0928 -6.2962,5.0954c2.658,0.6193 5.9154,0.2998 8.6936,0.2998c6.064,0 6.5952,-2.7729 6.5952,-7.1947c0,-6.6856 -6.0061,-4.5622 -8.9934,-5.9956l0,-1.1992c9.3089,0 7.6875,0.5984 7.7892,-2.715c0.052,-1.6913 0.422,-1.1874 -0.2947,-2.681c-4.9879,0 -11.5721,-1.0364 -13.3668,2.5215c-0.3205,0.6354 -0.4231,1.16 -0.4231,1.9752z" fill="black" id="svg_7"/>
   <path class="fil2" d="m157.3097,17.4725c0,4.5134 -0.763,7.0933 2.9868,8.1052c1.0794,0.2913 4.4682,0.8607 5.7069,0.8882l0,1.4989l-8.3939,0c-0.7167,1.4937 -0.3466,0.9898 -0.2947,2.6811c0.1031,3.3599 -1.6414,2.715 8.6886,2.715c2.5877,0 3.9983,-0.4932 5.3301,-1.8646c1.1506,-1.1847 1.1687,-2.2704 1.1539,-3.8788c-0.0035,-0.3699 0.1279,-0.6375 0.1291,-1.4454c0.0033,-2.2438 -0.6258,-3.7543 -2.6146,-4.6041c-1.2812,-0.5474 -4.6592,-1.0976 -6.3968,-1.0976c-0.2467,-1.1652 -0.2467,-0.3338 0,-1.499c9.0737,0 7.7943,1.136 7.7943,-4.4967c0,-0.6907 -0.2086,-0.8993 -0.8993,-0.8993c-4.2433,0 -13.1904,-1.1411 -13.1904,3.8971z" fill="black" id="svg_8"/>
   <path class="fil2" d="m122.5351,33.0611c2.3616,0.5502 12.0279,0.5502 14.3896,0c0.0146,-0.6574 0.1205,-1.1989 0.1506,-1.4342c0.1138,-0.8875 -0.1506,-0.9709 -0.1506,-1.2638c0,-0.8421 0.634,-0.452 -0.2998,-2.3983l-8.0941,0l0,-2.0984c2.6907,0 4.0405,0.2256 6.2953,-0.2998c0.4756,-5.7142 0.6949,-4.7964 -6.2953,-4.7964l0,-1.7988c2.7113,0 5.7858,0.3078 8.3939,-0.2998c0,-2.6682 0.6197,-3.1797 -0.2998,-5.0962c-16.5088,0 -14.0901,-1.1767 -14.0898,4.1969l0,15.2888z" fill="black" id="svg_9"/>
   <path class="fil2" d="m109.9444,48.6498l-2.6981,0l0,-3.8972c4.1669,0 3.5974,-0.5443 3.5974,2.9978c0,0.6907 -0.2086,0.8994 -0.8993,0.8994zm-2.7524,7.4945l0.0814,-2.6007l4.1699,-0.1328c8.4673,0.3885 5.0633,-11.0803 4.7464,-11.606c-1.1181,-1.8548 -3.3604,-2.4555 -6.2394,-2.4542c-2.8365,0.0012 -6.348,-0.2422 -8.6996,0.3057l0.0095,2.9835c0.0472,1.1456 -0.0095,2.4473 -0.0095,3.6117l-0.007,10.7991c-0.0187,1.7448 -0.3248,2.0767 1.4846,2.1128c0.659,0.0131 3.1369,0.0711 3.6327,-0.0074c1.3215,-0.2093 0.9376,-1.4958 0.831,-3.0117z" fill="black" id="svg_10"/>
   <path class="fil2" d="m66.7759,39.6563c-0.055,2.4687 -0.5988,-0.4204 0.0552,5.0887l3.5421,0.0076l0,8.9934l-3.2975,0c-0.8988,1.6986 -0.8013,3.7262 0,5.3961c2.3034,0 4.864,-0.2605 7.0871,0.1285c1.1345,0.1985 1.7333,-0.1394 3.0997,-0.1342c3.4249,0.0129 3.0035,0.7633 3.0035,-4.1913c0,-1.5673 -1.8789,-1.1991 -3.5973,-1.1991l0,-8.9934c4.3162,0 3.5973,0.7545 3.5973,-4.1969c0,-0.7018 -0.4974,-1.1991 -1.1991,-1.1991c-2.1512,0 -10.8036,-0.2776 -12.291,0.2997z" fill="black" id="svg_11"/>
   <path class="fil2" d="m105.1478,18.6716c0,14.23 -1.5892,14.6893 12.5908,14.6893c0.9147,0 1.2097,-0.2879 1.7988,-0.5995l0,-3.5974c0,-3.0232 -8.0941,0.6249 -8.0941,-2.3983l0,-6.5951c0,-3.0232 8.0941,0.6249 8.0941,-2.3983c0,-5.1256 1.0483,-4.1969 -7.7944,-4.1969c-3.6874,0 -6.5952,1.4623 -6.5952,5.0962z" fill="black" id="svg_12"/>
   <path class="fil2" d="m107.192,56.1443c0.3528,-0.4708 0.2208,0.4706 0.3737,-0.8828c0.0329,-0.2907 -0.0196,-1.1586 -0.0196,-1.5155c1.5697,0 3.1014,0.2293 3.8972,-0.3352l-4.1699,0.1328l-0.0814,2.6007z" fill="black" id="svg_13"/>
  </g>
 </g>

</svg>